<svg xmlns="http://www.w3.org/2000/svg" width="40.32" height="28.799" viewBox="0 0 40.32 28.799">
  <path id="Icon_zocial-cart" data-name="Icon zocial-cart" d="M-2.07,6.336A1.612,1.612,0,0,1-1.6,5.148,1.607,1.607,0,0,1-.414,4.68h8.46a1.65,1.65,0,0,1,1.026.342,1.6,1.6,0,0,1,.594.918l.864,3.528H34.793l.253-.756A1.489,1.489,0,0,1,36.594,7.56a1.108,1.108,0,0,1,.468.072,1.55,1.55,0,0,1,.864.576,1.573,1.573,0,0,1,.324.972,2.012,2.012,0,0,1-.072.468L33.93,23.8a1.548,1.548,0,0,1-.576.864,1.582,1.582,0,0,1-.972.324H12.258a1.6,1.6,0,0,1-1.026-.359,1.681,1.681,0,0,1-.594-.9L6.75,7.956H-.414a1.628,1.628,0,0,1-1.17-.468A1.536,1.536,0,0,1-2.07,6.336Zm13.392,6.408,2.232,8.928h17.6l.071-.323,2.593-8.6h-22.5Zm1.512,17.424a3.159,3.159,0,0,1,.99-2.34,3.251,3.251,0,0,1,2.358-.972,3.311,3.311,0,0,1,0,6.623,3.25,3.25,0,0,1-2.358-.971A3.163,3.163,0,0,1,12.834,30.168Zm2.34-14.616H21.15v3.311H15.893Zm8.82,3.312.036-3.311h5.832L29,18.864Zm1.332,11.3a3.16,3.16,0,0,1,.991-2.34,3.248,3.248,0,0,1,2.358-.972,3.311,3.311,0,0,1,0,6.623,5.938,5.938,0,0,1-2.358-.971A5.753,5.753,0,0,1,25.326,30.168Z" transform="translate(2.07 -4.68)" fill="#fff"/>
</svg>
